<?xml version="1.0" encoding="utf-8"?>
<!-- Generator: Adobe Illustrator 17.1.0, SVG Export Plug-In . SVG Version: 6.00 Build 0)  -->
<!DOCTYPE svg PUBLIC "-//W3C//DTD SVG 1.1//EN" "http://www.w3.org/Graphics/SVG/1.1/DTD/svg11.dtd">
<svg version="1.1" xmlns="http://www.w3.org/2000/svg" xmlns:xlink="http://www.w3.org/1999/xlink" x="0px" y="0px"
	 viewBox="0 0 908.5 239.1" enable-background="new 0 0 908.5 239.1" xml:space="preserve">
<g id="Layer_4">
	<g>
		<path fill="#7B9BA3" d="M392.8,38.1c-4.1,4.1-9.4,8.3-9.3,14.1c1.5,54-4.2,105.6-5.3,160.5c73,5.9,161.1,3.5,234.3,0.3
			c7.9-0.3,15.3-1.6,23.2-2.2c1.3-0.1,4.3-2.3,4.2-3.3c-5-47.4-0.5-93.8-1.4-141.5c-0.1-8-1.1-25.2-5.6-31.7
			c-7.5-10.7-125-3.5-167.7-2.6C453.6,31.9,399.6,31.3,392.8,38.1z"/>
	</g>
	<g>
		<path fill="#E6EAEC" d="M337.5,217.2c-2.4,5.5,1.3,13.9,6.8,16.3c5.5,2.4,15.8,2.4,21.7,2c4.6-0.3,240.7,7.4,312,1.5
			c2.4-0.2,12.5-11.7,11.2-17.5c-0.9-4.1-10.4-6.4-14.6-6.7c-4.2-0.3-8.2,1.1-12.3,2.2c-19.1,5.5-269.4,2.4-296.7,1.6L337.5,217.2z"
			/>
	</g>
	<g>
		<polygon fill="#B7C0C3" points="404.4,55 404.4,198.2 619.2,197.2 617.4,52.2 		"/>
	</g>
	<g>
		<path fill="#E6EAEC" d="M4.7,111.3c1.3,20.2-1.3,40.4-0.1,60.6c0.7,11.6,2.7,23.1,3.2,34.7c0.4,8.9-0.1,17.8,0.2,26.8
			c0,1.1,0.1,2.3,0.6,3.2c1.1,1.9,3.4,2,5.5,2c27.3-0.7,54.4-4.8,81.4-8.9c1.4-0.2,2.8-0.4,3.9-1.3c2-1.6,2.2-4.7,2.3-7.5
			c0.4-20.6-1.7-41.1-2.4-61.7c-0.5-16.6,0.8-33.4-3.2-49.4c-0.2-0.7-0.4-1.5-0.9-2.1c-0.6-0.7-1.5-0.9-2.4-1
			c-28.7-5.4-58.1-1.2-87,3.1"/>
	</g>
	<g>
		<path fill="#89D4F6" d="M13.2,117.3c1,32.6-2.2,65.1,0,97.6c19.6-0.1,44.6-0.1,64.2-0.2c1.2,0,2.4,0,3.4-0.6c1.7-1,3.8-2.6,4-4.6
			c2.3-28.3,3.6-59.3-0.6-87.5c-0.3-2-4.7-2.5-6.4-3.6c-0.9-0.7-2.1-0.9-3.2-1.1c-20.1-3.5-41-6.9-60.5-1"/>
	</g>
	<g>
		<path fill="#E8F6FC" d="M141.3,115.1c4.5,32.5,4.5,70.7,2.3,103.4c21.9,1.6,45.2-2.1,66.8-6.2c1-0.2,2.2-0.5,2.8-1.3
			c0.5-0.7,0.6-1.6,0.6-2.5c0.7-19.7,1.3-39.4,2-59.1c0.3-9.6,0.9-22,0.4-31.6c-7.7-1.6-64.2-2.7-73.7-1.6"/>
	</g>
	<g>
		<path fill="#E6EAEC" d="M729.5,170.2c0,3.2,0,6.5,0,9.7c0,0.7,0,1.5,0.6,1.9c0.4,0.3,0.9,0.3,1.4,0.3c4.8-0.2,9.6-0.4,14.4-0.5
			c0.3,0,0.7,0,1-0.2c0.3-0.3,0.5-0.7,0.5-1.1c0.7-3.6,1.3-7.2,1.6-10.8c-1.3-0.9-3.1-0.7-4.6-0.5c-4.6,0.5-9.2,1.1-13.8,1.6"/>
	</g>
</g>
<g id="Layer_3">
	<g>
		<path fill="#438193" d="M639.2,214.7h-3V44.1c0-6-4.9-10.9-10.9-10.9H395.9c-6,0-10.9,4.9-10.9,10.9v170.6h-3V44.1
			c0-7.7,6.2-13.9,13.9-13.9h229.3c7.7,0,13.9,6.2,13.9,13.9V214.7z"/>
	</g>
	<g>
		<path fill="#438193" d="M617.4,199.7h-213c-2.1,0-3.8-1.7-3.8-3.7V54.4c0-2.1,1.7-3.7,3.8-3.7h213c2.1,0,3.8,1.7,3.8,3.7v141.5
			C621.1,198,619.4,199.7,617.4,199.7z M404.4,53.7c-0.4,0-0.8,0.3-0.8,0.7v141.5c0,0.4,0.3,0.7,0.8,0.7h213c0.4,0,0.8-0.3,0.8-0.7
			V54.4c0-0.4-0.3-0.7-0.8-0.7H404.4z"/>
	</g>
	<g>
		<circle fill="#438193" cx="510.9" cy="42.1" r="4"/>
	</g>
	<g>
		<path fill="#438193" d="M690.6,229.1H331.2v-16h359.4V229.1z M334.2,226.1h353.4v-10H334.2V226.1z"/>
	</g>
	<g>
		<path fill="#438193" d="M673.2,238.4H348.5c-16.2,0-17.3-10.1-17.3-10.6l3-0.3c0,0.3,1,7.8,14.4,7.8h324.7
			c13.4,0,14.3-7.5,14.4-7.9l3,0.3C690.6,227.9,689.5,238.4,673.2,238.4z"/>
	</g>
	<g>
		<path fill="#E8F6FC" d="M488,84c2.3,27-3.8,54.4,1.3,81c0.2,0.9,0.4,1.9,1.1,2.6c0.8,0.8,2.1,0.9,3.3,1
			c17.8,0.8,35.7,1.5,53.5,2.3c6.6,0.3,13.2,0.6,19.8,0.4c8.8-0.3,22.6-1.3,31.2-2.7c1-0.2,2.2-0.4,2.8-1.2c0.6-0.7,0.5-1.8,0.5-2.7
			c-0.8-19.2-1.7-38.4-2.5-57.6c-0.3-5.8-0.6-11.9-3.4-16.9c-0.6-1.1-4.8-3.5-6.1-3.7c-31.1-2.9-67.6,2.7-98.7-0.3"/>
	</g>
	<g>
		<path fill="#438193" d="M570.3,170.4h-57.2v-20.8c0-10.1,8.2-18.2,18.2-18.2h20.8c10.1,0,18.2,8.2,18.2,18.2V170.4z"/>
	</g>
	<g>
		<circle fill="#438193" cx="541.7" cy="113.5" r="15.9"/>
	</g>
	<g>
		<path fill="#E8F6FC" d="M423.7,99.9c0,14.6,0,29.3,0.1,43.9c17.2,1.7,34.9,3.1,51.3-2.3c0.4-0.1,0.8-0.3,1.1-0.6
			c0.3-0.4,0.4-0.9,0.4-1.4c0.8-11.5,1.6-23,2.3-34.5c0-0.4,0-0.9-0.3-1.1c-0.2-0.2-0.5-0.2-0.7-0.2c-11.9-0.9-23.9-1.8-35.8-0.9
			c-5.6,0.4-11.2,1.2-16.7,0.6"/>
	</g>
	<g>
		<path fill="#438193" d="M460.2,144.1H436v-8.8c0-4.3,3.5-7.7,7.7-7.7h8.8c4.3,0,7.7,3.5,7.7,7.7V144.1z"/>
	</g>
	<g>
		<circle fill="#438193" cx="448.1" cy="117.8" r="8.1"/>
	</g>
	<g>
		<path fill="#438193" d="M477.1,146h-57.9V99.2h57.9V146z M422.2,143h51.9v-40.8h-51.9V143z"/>
	</g>
	<g>
		<path fill="#438193" d="M597.2,172h-111V82.4h111V172z M489.2,169h105V85.4h-105V169z"/>
	</g>
	<g>
		<path fill="#438193" d="M89.6,237.9H7.9c-4.4,0-7.9-3.5-7.9-7.9V112.3c0-4.4,3.5-7.9,7.9-7.9h81.7c4.4,0,7.9,3.5,7.9,7.9V230
			C97.5,234.3,94,237.9,89.6,237.9z M7.9,107.4c-2.7,0-4.9,2.2-4.9,4.9V230c0,2.7,2.2,4.9,4.9,4.9h81.7c2.7,0,4.9-2.2,4.9-4.9V112.3
			c0-2.7-2.2-4.9-4.9-4.9H7.9z"/>
	</g>
	<g>
		<path fill="#438193" d="M86.9,216.6H11.7c-1.1,0-2-0.9-2-1.9v-99.3c0-1.1,0.9-1.9,2-1.9h75.1c1.1,0,2,0.9,2,1.9v99.3
			C88.8,215.7,87.9,216.6,86.9,216.6z M12.8,213.6h73.1v-97.2H12.8V213.6z"/>
	</g>
	<g>
		<path fill="#438193" d="M48.8,231.9c-3.3,0-5.9-2.7-5.9-5.9s2.7-5.9,5.9-5.9s5.9,2.7,5.9,5.9S52,231.9,48.8,231.9z M48.8,223
			c-1.6,0-2.9,1.3-2.9,2.9s1.3,2.9,2.9,2.9s2.9-1.3,2.9-2.9S50.4,223,48.8,223z"/>
	</g>
	<g>
		<path fill="#438193" d="M77.5,214.2H21.8V194c0-9.8,7.9-17.7,17.7-17.7h20.2c9.8,0,17.7,7.9,17.7,17.7V214.2z"/>
	</g>
	<g>
		<circle fill="#438193" cx="49.6" cy="158.9" r="15.5"/>
	</g>
	<g>
		<path fill="#438193" d="M206.7,211.7H151v-20.2c0-9.8,7.9-17.7,17.7-17.7H189c9.8,0,17.7,7.9,17.7,17.7V211.7z"/>
	</g>
	<g>
		<circle fill="#438193" cx="178.9" cy="156.3" r="15.5"/>
	</g>
	<g>
		<path fill="#E8F6FC" d="M18.7,120.2c0,5.5,0,11,0,16.4c6.4,0.6,13.1,1.1,19.2-0.9c0.1,0,0.3-0.1,0.4-0.2c0.1-0.1,0.1-0.3,0.2-0.5
			c0.3-4.3,0.6-8.6,0.9-12.9c0-0.1,0-0.3-0.1-0.4c-0.1-0.1-0.2-0.1-0.3-0.1c-4.5-0.3-8.9-0.7-13.4-0.3c-2.1,0.2-4.2,0.4-6.3,0.2"/>
	</g>
	<g>
		<path fill="#438193" d="M32.4,136.7h-9.1v-3.3c0-1.6,1.3-2.9,2.9-2.9h3.3c1.6,0,2.9,1.3,2.9,2.9V136.7z"/>
	</g>
	<g>
		<circle fill="#438193" cx="27.9" cy="126.9" r="3"/>
	</g>
	<g>
		<path fill="#438193" d="M39.6,138.4H16.1V119h23.6V138.4z M19.1,135.4h17.6V122H19.1V135.4z"/>
	</g>
	<g>
		<path fill="#438193" d="M208,238.2h-58.4c-9.9,0-17.9-8-17.9-17.9V112c0-9.9,8-17.9,17.9-17.9H208c9.9,0,17.9,8,17.9,17.9v108.4
			C225.9,230.2,217.8,238.2,208,238.2z M149.6,97.1c-8.2,0-14.9,6.7-14.9,14.9v108.4c0,8.2,6.7,14.9,14.9,14.9H208
			c8.2,0,14.9-6.7,14.9-14.9V112c0-8.2-6.7-14.9-14.9-14.9H149.6z"/>
	</g>
	<g>
		<path fill="#438193" d="M216.1,213.1h-74.7c-1.1,0-2-0.9-2-1.9v-96.7c0-1.1,0.9-1.9,2-1.9h74.7c1.1,0,2,0.9,2,1.9v96.7
			C218.1,212.3,217.2,213.1,216.1,213.1z M142.5,210.1h72.6v-94.6h-72.6V210.1z"/>
	</g>
	<g>
		<path fill="#89D4F6" d="M147.3,120.2c0,5.5,0,11,0,16.4c6.4,0.6,13.1,1.1,19.2-0.9c0.1,0,0.3-0.1,0.4-0.2c0.1-0.1,0.1-0.3,0.2-0.5
			c0.3-4.3,0.6-8.6,0.9-12.9c0-0.1,0-0.3-0.1-0.4c-0.1-0.1-0.2-0.1-0.3-0.1c-4.5-0.3-8.9-0.7-13.4-0.3c-2.1,0.2-4.2,0.4-6.3,0.2"/>
	</g>
	<g>
		<path fill="#438193" d="M161,136.7h-9.1v-3.3c0-1.6,1.3-2.9,2.9-2.9h3.3c1.6,0,2.9,1.3,2.9,2.9V136.7z"/>
	</g>
	<g>
		<circle fill="#438193" cx="156.5" cy="126.9" r="3"/>
	</g>
	<g>
		<path fill="#438193" d="M168.3,138.4h-23.6V119h23.6V138.4z M147.7,135.4h17.6V122h-17.6V135.4z"/>
	</g>
	<g>
		<path fill="#E6EAEC" d="M906.7,37.3c-2.1-10-15.2-12.2-25.5-12.2c-28,0-56.1,0-84.1,0c-13.8,0-28.6-1.7-39.7,6.5
			c-3.5,2.6-6.5,7.9-8,12c-1.4,3.7-1.4,7.7-1.4,11.6c-0.2,38-0.5,76.1-0.7,114.1c-0.1,12.3-0.2,24.6,1.1,36.8c1,9.5,2.8,19,4.9,28.3
			c0.5,2.2,1.1,1.5,2.3,3.4c3.8,5.7,12,5.8,18.8,5.2c37.4-3,74.6,1.3,112-1.7c3.7-0.3,7.4-0.6,10.6-2.5c6.8-4,8.1-17.5,8.4-25.4
			c0.5-15.9,0.4-31.8,0.2-47.7c-0.4-41.9-0.9-83.8-1.3-125.8"/>
	</g>
	<g>
		<path fill="#B7C0C3" d="M887.8,41.9c-22.5,1.2-45,1.5-67.5,0.9c-8.8-0.2-17.7-0.6-26.5-0.7c-8-0.1-16.1,0.2-24.1,0.6
			c-0.6,0-1.3,0.1-1.8,0.6c-0.5,0.5-0.6,1.2-0.6,1.9c-0.7,7.7-1.4,15.3-2.1,23c-1.1,12.2-2.2,24.4-1.3,36.6
			c0.5,7.5,1.8,14.9,2.4,22.4c1.1,14.8-0.5,29.6-0.7,44.5c-0.3,16,1,32.1,3.8,47.9c0.2,1,0.4,2,1.1,2.6c0.6,0.5,1.4,0.5,2.2,0.5
			c16.8-0.4,33.6-0.7,50.3-1.1c20.2-0.4,40.5-0.9,60.5-3.9c0.8-0.1,1.7-0.3,2.3-0.9c0.6-0.7,0.6-1.6,0.7-2.5
			c0.6-11.4,1.2-22.9,1.7-34.3c0.4-8.3,0.8-16.6,0.3-24.9c-0.5-7.6,1.5-20.5,0.8-28c-2.7-29.3,0.2-53.5-2.5-82.8"/>
	</g>
	<g>
		<path fill="#89D4F6" d="M783.7,129.4c1.8,21.3-3,43,1,64.1c0.1,0.7,0.3,1.5,0.8,2c0.7,0.7,1.7,0.7,2.6,0.8
			c14.1,0.6,28.2,1.2,42.3,1.8c5.2,0.2,10.4,0.4,15.6,0.3c6.9-0.2,17.8-1.1,24.7-2.2c0.8-0.1,1.7-0.3,2.2-1c0.4-0.6,0.4-1.4,0.4-2.1
			c-0.7-15.2-1.3-30.4-2-45.6c-0.2-4.6-0.4-9.4-2.7-13.4c-0.5-0.8-3.8-2.8-4.8-2.9c-24.6-2.3-53.5,2.1-78.1-0.3"/>
	</g>
	<g>
		<path fill="#438193" d="M848.8,197.7h-45.2v-16.4c0-8,6.4-14.4,14.4-14.4h16.4c8,0,14.4,6.4,14.4,14.4V197.7z"/>
	</g>
	<g>
		<circle fill="#438193" cx="826.1" cy="152.7" r="12.6"/>
	</g>
	<g>
		<path fill="#E8F6FC" d="M806,71.1c0,12.4,0,24.9,0.1,37.3c14.6,1.5,29.7,2.6,43.6-1.9c0.3-0.1,0.7-0.2,0.9-0.5
			c0.3-0.3,0.3-0.8,0.3-1.2c0.7-9.8,1.3-19.6,2-29.4c0-0.3,0-0.7-0.2-0.9c-0.2-0.1-0.4-0.2-0.6-0.2c-10.1-0.8-20.3-1.5-30.4-0.8
			c-4.7,0.3-9.5,1-14.2,0.5"/>
	</g>
	<g>
		<path fill="#438193" d="M837.1,108.7h-20.6v-7.5c0-3.6,2.9-6.6,6.6-6.6h7.5c3.6,0,6.6,2.9,6.6,6.6V108.7z"/>
	</g>
	<g>
		<circle fill="#438193" cx="826.8" cy="86.4" r="6.9"/>
	</g>
	<g>
		<path fill="#438193" d="M894.8,238.5H761.6c-7.5,0-13.7-6.1-13.7-13.7V34.2c0-7.5,6.1-13.7,13.7-13.7h133.3
			c7.5,0,13.7,6.1,13.7,13.7v190.6C908.5,232.4,902.4,238.5,894.8,238.5z M761.6,23.5c-5.9,0-10.7,4.8-10.7,10.7v190.6
			c0,5.9,4.8,10.7,10.7,10.7h133.3c5.9,0,10.7-4.8,10.7-10.7V34.2c0-5.9-4.8-10.7-10.7-10.7H761.6z"/>
	</g>
	<g>
		<path fill="#438193" d="M891.2,219.9H764.4V39h126.8V219.9z M767.4,216.9h120.8V42H767.4V216.9z"/>
	</g>
	<g>
		<path fill="#438193" d="M851.6,110.5h-49.7V70.3h49.7V110.5z M804.9,107.5h43.7V73.3h-43.7V107.5z"/>
	</g>
	<g>
		<path fill="#438193" d="M870.3,199.3H782v-71.5h88.4V199.3z M785,196.3h82.4v-65.5H785V196.3z"/>
	</g>
	<g>
		<path fill="#438193" d="M59.7,105.9h-3V86.3c0-9.9,8-17.9,17.9-17.9l20.8,0.1c8.2,0,14.9-6.7,14.9-14.9v-3.8h3v3.8
			c0,9.9-8,17.9-17.9,17.9l-20.8-0.1c-8.2,0-14.9,6.7-14.9,14.9V105.9z"/>
	</g>
	<g>
		<path fill="#438193" d="M175.7,95.6h-3V82.5c0-8.2-6.7-14.9-14.9-14.9L131,67.7c-9.9,0-17.9-8-17.9-17.9h3
			c0,8.2,6.7,14.9,14.9,14.9l26.8-0.1c9.9,0,17.9,8,17.9,17.9V95.6z"/>
	</g>
	<g>
		<path fill="#438193" d="M113.4,51.3c-1.9,0-8.1-0.2-8.1-3.4s6.2-3.4,8.1-3.4s8.1,0.2,8.1,3.4S115.3,51.3,113.4,51.3z M109.6,47.9
			c0.9,0.2,2.2,0.4,3.9,0.4s3-0.2,3.9-0.4c-0.9-0.2-2.2-0.4-3.9-0.4S110.5,47.7,109.6,47.9z"/>
	</g>
	<g>
		<path fill="#438193" d="M113.4,45.1c-1.9,0-8.1-0.2-8.1-3.4s6.2-3.4,8.1-3.4s8.1,0.2,8.1,3.4S115.3,45.1,113.4,45.1z M109.6,41.7
			c0.9,0.2,2.2,0.4,3.9,0.4s3-0.2,3.9-0.4c-0.9-0.2-2.2-0.4-3.9-0.4S110.5,41.5,109.6,41.7z"/>
	</g>
	<g>
		<path fill="#438193" d="M113.4,38.9c-1.9,0-8.1-0.2-8.1-3.4s6.2-3.4,8.1-3.4s8.1,0.2,8.1,3.4S115.3,38.9,113.4,38.9z M109.6,35.5
			c0.9,0.2,2.2,0.4,3.9,0.4s3-0.2,3.9-0.4c-0.9-0.2-2.2-0.4-3.9-0.4S110.5,35.3,109.6,35.5z"/>
	</g>
	<g>
		<path fill="#438193" d="M113.6,33.2c-4.4,0-9.5-3.3-13.9-8.9c-4.1-5.2-6.6-11.4-6.6-16c0-2.5,0.7-4.5,2.1-5.9
			c1.5-1.6,3.7-2.4,6.6-2.4c5.8,0,8,2.8,9.5,4.7c1,1.3,1.4,1.7,2.2,1.7c1.2,0,2.5-1,4.1-2.3c2.4-1.9,5.4-4.2,9.8-4.2
			c2.9,0,5.2,0.7,6.7,2.1c1.4,1.3,2.2,3.3,2.2,5.6C136.2,17.2,123.4,33.2,113.6,33.2z M101.8,3c-2,0-3.5,0.5-4.5,1.5
			c-0.8,0.9-1.2,2.1-1.2,3.8c0,8.1,10,21.9,17.5,21.9c6.9,0,19.6-13.2,19.6-22.4c0-1.5-0.4-2.6-1.2-3.4c-1-0.9-2.6-1.3-4.7-1.3
			c-3.3,0-5.7,1.8-7.9,3.6c-1.9,1.5-3.7,2.9-5.9,2.9c-2.3,0-3.5-1.5-4.5-2.9C107.5,4.8,106.1,3,101.8,3z"/>
	</g>
	<g>
		<rect x="169.8" y="86.9" fill="#FFFFFF" width="9.2" height="8.7"/>
		<path fill="#438193" d="M180.5,97.1h-12.2V85.4h12.2V97.1z M171.3,94.1h6.2v-5.7h-6.2V94.1z"/>
	</g>
	<g>
		<path fill="#438193" d="M356.5,214.7h-3c0-2.3,0-57,0-58.1c-0.1-6.6-0.6-13-4.1-15.1c-1.5-0.9-3.7-1.1-6.5-0.3
			c0.6,1.4,0.7,2.9,0.7,4.2c0.1,4.4-0.9,7.8-3.1,9.9c-1.5,1.5-3.9,2.2-6.1,1.9c-1.9-0.3-3.5-1.4-4.3-2.9c-0.8-1.5-1.1-3.2-0.8-4.9
			c-2.4,3.2-5.1,6-8.4,6.3c-2.7,0.2-4.9-0.7-6.6-2.6c-0.4-0.5-0.8-1-1.1-1.6c-0.3,0.4-0.7,0.8-1,1.2c-2.5,2.7-4.9,4-7.1,4.1
			c-2.8,0-5.2-1.2-6.9-3.5c-2,1.9-4.3,3.3-6.8,3.7c-2,0.3-3.7-0.3-5.1-1.8c-0.3-0.4-0.6-0.7-0.9-1.2c-1.7,1.6-3.5,2.8-5,3
			c-2.2,0.2-3.9-0.2-5-1.4c-2-2.1-1.4-5.7-0.9-8.8c0.2-1.2,0.5-3,0.3-3.7c-2,0.1-2.9,3-3.9,6.7c-0.8,3.2-1.6,6.2-4.1,6.3
			c-0.7,0-1.2-0.3-1.5-0.8c-0.8-1.2-1-6-0.7-11.8c-1.8,1.6-3.6,2.6-5.5,2.6c-4.8,0-5.8-2.2-5.8-12.4l0.1-51.2
			c0-8.2-6.7-14.9-14.9-14.9h-47.7c-8.2,0-14.9,6.7-14.9,14.9h-3c0-9.9,8-17.9,17.9-17.9h47.7c9.9,0,17.9,8,17.9,17.9l-0.1,51.2
			c0,3.1,0.1,7.3,0.9,8.8c0.3,0.5,0.4,0.6,1.9,0.6c1.8,0,3.8-1.8,5.7-4.5c0.6-8.6,1.9-17.9,3.3-21.2c2.2-5,4.6-5.2,5.8-4.9
			c2.1,0.5,3.3,3.2,2.9,6.6c-0.2,2.2-4,13.3-9.2,20.6c-0.3,4.6-0.4,8.8-0.3,11.4c0.2-0.7,0.4-1.5,0.6-2.1c1-3.8,2.3-9,6.9-9
			c1.1,0,1.8,0.5,2.1,0.9c1.2,1.3,0.8,3.6,0.4,6.2c-0.4,2.2-0.8,5.3,0.1,6.3c0.4,0.4,1.3,0.6,2.5,0.5c0.9-0.1,2.4-1.2,4-2.9
			c-0.8-2.6-0.9-5.6-0.4-7.9c0.9-4.2,2.8-6.9,5-7.2c0.9-0.1,2.5,0.1,3.7,2.5c0.9,1.7,0.6,4.2-1.1,7.6c-0.9,1.7-2.2,3.8-3.7,5.6
			c0.3,0.6,0.6,1,1,1.4c0.7,0.8,1.5,1,2.5,0.9c2.1-0.3,4.1-1.6,5.8-3.4c-3.6-8.5-1.3-23.3,1.2-29.4c2.9-6.9,5.7-8,7.6-7.6
			c2.4,0.4,4.1,3.3,4.3,7.3c0.3,6-2.9,21.5-9.6,30.1c0.1,0.1,0.2,0.2,0.2,0.4c1.1,1.7,2.6,2.5,4.5,2.5c1.3,0,3.1-1.1,4.9-3.1
			c0.7-0.7,1.3-1.5,2-2.4c-2.2-8.2,0.1-20.6,0.8-23.2c2.1-7.7,5.6-12.5,8.9-12.1c1.7,0.2,3.7,1.6,4,7.2c0.4,6.9-4.7,20.3-10.4,28.7
			c0.4,0.9,0.8,1.7,1.3,2.4c1,1.2,2.3,1.7,4,1.6c3.1-0.3,6.2-4.9,8.7-8.5c1.1-1.6,2.2-3.2,3.2-4.4c1.6-1.9,3.5-2.8,5.3-2.8
			c1.2,0.1,2.4,0.6,3.4,1.5c4.1-1.3,7.3-1.1,9.8,0.4c4.9,3,5.4,10.7,5.5,17.6C356.5,157.7,356.5,212.3,356.5,214.7z M340.1,142.1
			c-0.8,0.3-1.6,0.7-2.5,1.1c-1.9,0.9-4.3,3.2-5.1,5.7c-0.5,1.4-0.4,2.8,0.3,4c0.5,1,1.6,1.3,2.1,1.4c1.3,0.2,2.7-0.2,3.6-1.1
			c1.6-1.5,2.3-4.1,2.2-7.7C340.6,144.4,340.5,143.1,340.1,142.1z M289,138.9c-0.3,0-1.6,1.3-2.4,4.8c-0.3,1.2-0.3,2.7-0.1,4.3
			c0.8-1.1,1.5-2.2,2.1-3.4c1.5-2.9,1.4-4.4,1.2-4.8C289.4,139.1,289.1,138.9,289,138.9z M305,116.4c-0.7,0-2.3,1.2-4.2,5.8
			c-2.5,6.1-3.9,18.1-1.8,25.5c5.3-8,8.2-21.3,7.9-26.8C306.7,118.2,305.8,116.5,305,116.4C305.1,116.4,305,116.4,305,116.4z
			 M321.3,115.9c-0.9,0-3.7,2.8-5.7,9.9c-1,3.8-2.2,12.5-1.3,19c4.9-8.1,8.7-19.2,8.4-24.5C322.5,116.7,321.6,115.9,321.3,115.9
			C321.4,115.9,321.3,115.9,321.3,115.9z M337.1,140.1c-0.3,0.1-0.7,0.3-1,0.5c0.1,0,0.2-0.1,0.2-0.1
			C336.6,140.3,336.8,140.2,337.1,140.1z M273.2,115.3c-0.2,0-1.2,0.6-2.3,3.2c-1.1,2.5-2,8.2-2.6,14.4c3.1-5.7,5.4-12.1,5.6-14.1
			C274.1,116.4,273.4,115.4,273.2,115.3C273.2,115.3,273.2,115.3,273.2,115.3z"/>
	</g>
	<g>
		<path fill="#438193" d="M655.3,215h-3v-19.6c0-9.9,8-17.9,17.9-17.9l7.8,0.1c8.2,0,14.9-6.7,14.9-14.9V159h3v3.8
			c0,9.9-8,17.9-17.9,17.9l-7.8-0.1c-8.2,0-14.9,6.7-14.9,14.9V215z"/>
	</g>
	<g>
		<path fill="#438193" d="M732.9,176.9h-19.3c-9.9,0-17.9-8-17.9-17.9h3c0,8.2,6.7,14.9,14.9,14.9h19.3V176.9z"/>
	</g>
	<g>
		<path fill="#438193" d="M750.6,182.4h-19.2v-15.3h19.2V182.4z M734.4,179.4h13.2v-9.3h-13.2V179.4z"/>
	</g>
	<g>
		<path fill="#438193" d="M696.1,160.5c-1.9,0-8.1-0.2-8.1-3.4s6.2-3.4,8.1-3.4s8.1,0.2,8.1,3.4S698,160.5,696.1,160.5z
			 M692.2,157.1c0.9,0.2,2.2,0.4,3.9,0.4s3-0.2,3.9-0.4c-0.9-0.2-2.2-0.4-3.9-0.4S693.1,156.9,692.2,157.1z"/>
	</g>
	<g>
		<path fill="#438193" d="M696.1,154.3c-1.9,0-8.1-0.2-8.1-3.4s6.2-3.4,8.1-3.4s8.1,0.2,8.1,3.4S698,154.3,696.1,154.3z
			 M692.2,150.9c0.9,0.2,2.2,0.4,3.9,0.4s3-0.2,3.9-0.4c-0.9-0.2-2.2-0.4-3.9-0.4S693.1,150.6,692.2,150.9z"/>
	</g>
	<g>
		<path fill="#438193" d="M696.1,148.1c-1.9,0-8.1-0.2-8.1-3.4s6.2-3.4,8.1-3.4s8.1,0.2,8.1,3.4S698,148.1,696.1,148.1z
			 M692.2,144.7c0.9,0.2,2.2,0.4,3.9,0.4s3-0.2,3.9-0.4c-0.9-0.2-2.2-0.4-3.9-0.4S693.1,144.4,692.2,144.7z"/>
	</g>
	<g>
		<path fill="#438193" d="M696.2,142.3c-4.4,0-9.5-3.3-13.9-8.9c-4.1-5.2-6.6-11.4-6.6-16c0-2.5,0.7-4.5,2.1-5.9
			c1.5-1.6,3.7-2.4,6.6-2.4c5.8,0,8,2.8,9.5,4.7c1,1.3,1.4,1.7,2.2,1.7c1.2,0,2.5-1,4.1-2.3c2.4-1.9,5.4-4.2,9.8-4.2
			c2.9,0,5.2,0.7,6.7,2.1c1.4,1.3,2.2,3.3,2.2,5.6C718.8,126.3,706,142.3,696.2,142.3z M684.4,112.2c-2,0-3.5,0.5-4.5,1.5
			c-0.8,0.9-1.2,2.1-1.2,3.8c0,8.1,10,21.9,17.5,21.9c6.9,0,19.6-13.2,19.6-22.4c0-2-0.6-4.7-5.9-4.7c-3.3,0-5.7,1.8-7.9,3.6
			c-1.9,1.5-3.7,2.9-5.9,2.9c-2.3,0-3.5-1.5-4.5-2.9C690.1,114,688.7,112.2,684.4,112.2z"/>
	</g>
</g>
</svg>
