<?xml version="1.0" encoding="utf-8"?>
<!-- Generator: Adobe Illustrator 17.1.0, SVG Export Plug-In . SVG Version: 6.00 Build 0)  -->
<!DOCTYPE svg PUBLIC "-//W3C//DTD SVG 1.1//EN" "http://www.w3.org/Graphics/SVG/1.1/DTD/svg11.dtd">
<svg version="1.1" xmlns="http://www.w3.org/2000/svg" xmlns:xlink="http://www.w3.org/1999/xlink" x="0px" y="0px"
	 viewBox="0 0 908.1 239.2" enable-background="new 0 0 908.1 239.2" xml:space="preserve">
<g id="Layer_2">
	<path fill="#E6EAEC" d="M10.3,104.1c1.5,22.3-1.6,44.8-0.1,67.1c0.8,12.9,3.2,25.6,3.8,38.5c0.5,9.9-0.1,19.8,0.2,29.6
		c0,1.2,0.1,2.5,0.8,3.6c1.3,2,4.2,2.2,6.6,2.2c33-0.8,65.7-5.3,98.4-9.8c1.6-0.2,3.3-0.5,4.7-1.5c2.4-1.8,2.7-5.3,2.8-8.3
		c0.4-22.8-2.1-45.6-2.9-68.3c-0.6-18.4,0.9-36.9-3.9-54.7c-0.2-0.8-0.5-1.7-1.1-2.3c-0.7-0.8-1.9-1-2.9-1.2
		c-34.7-6-70.3-1.3-105.2,3.4"/>
	<path fill="#FDC67C" d="M216.3,145.4c-7.7-9.1-20.2-14-32.1-12.5c-3.5,0.4-7,1.4-10,3.4c-3.8,2.6-6.5,6.6-7.7,11.1
		s-1.1,9.2-0.1,13.6c2.1,9.2,8.6,17.9,17.6,20.6c2.5,0.8,5.2,1.1,7.9,1.1c2.3,0.1,4.7,0,6.9-0.6c6.4-1.5,11.7-6.4,14.7-12.3
		c3-5.9,4-12.6,4-19.2c0-1.7-0.2-3.6-1.4-4.7"/>
	<path fill="#89D4F6" d="M464.8,113.5c-33.8,0.7-67.6,1.4-101.3,2.1c-0.5,0-1.1,0-1.6,0.3c-0.8,0.5-0.8,1.7-0.8,2.7
		c1.3,27.6-6.8,54.7-15.6,80.9c-1.8,5.2-4.9,11.4-10.4,11.3c-0.9,0-2-0.2-2.7,0.4c-0.6,0.5-0.6,1.4-0.6,2.1c-0.1,3-0.2,6-0.3,9
		c0,0.8,0,1.6,0.7,2.1c1,0.7,2.7-0.6,3.6,0.3c0.4,0.5,0.2,1.2,0.1,1.8c-0.4,2.8,1.6,5.5,4,6.9c2.5,1.4,5.4,1.7,8.2,2
		c3.4,0.4,7.1,0.7,10.1-1s4.6-6.2,2.2-8.6c20-2.2,35.2,0.8,55.2-0.9c10.8-0.9,25.6-0.1,36.4,0.3c5.2,0.2,16.1,0.7,16.8,5.8
		c0.4,2.8-2.1,4,0.4,5.4c0.9,0.5,25.7,1.3,25.5,0.3c-0.5-2.3,1.2-7.5,0.6-9.8c1.9,1.3,5.7,2,7.1,0.1c0,0-1.7-17.5-1.5-19.8
		c0.2-3.1-11.3-1.5-13-3.4c-0.6-0.6-0.9-1.5-1.1-2.3c-5-17.8-10-35.6-15-53.5c-1.6-5.6-3.1-11.2-3.2-17c-0.1-6.2,1.5-13.1-2.1-18.2"
		/>
	<path fill="#89D4F6" d="M372.2,99.6c0,5.6,0,11.1,0,16.7c0,0.4,0,0.9,0.3,1.1c0.2,0.2,0.6,0.3,0.9,0.3c2,0.2,3.9,0.2,5.9,0.2
		c0.1-5.6,0.6-11.3,1.3-16.9c0.1-0.4,0.1-0.9-0.2-1.2c-0.3-0.4-0.9-0.4-1.4-0.4c-1.6,0-3.3,0-4.9,0"/>
	<path fill="#89D4F6" d="M445.1,100.4c0,3.5,0,7.1,0,10.6c0,0.3,0,0.5,0.1,0.7c0.2,0.4,0.7,0.4,1.2,0.4c2.1,0,4.3,0,6.4,0
		c0.7,0,1.5,0,2-0.5c0.6-0.5,0.7-1.3,0.7-2c0.3-3.4,0.4-6.8,0.3-10.2c0-0.3,0-0.6-0.2-0.9c-0.2-0.3-0.6-0.3-1-0.3
		c-2.9,0-5.8,0-8.7,0"/>
	<path fill="#89D4F6" d="M299.9,88.7c-7.2,15.9-10.7,33.5-10.2,50.9c0.2,7,1.9,15.2,8.1,18.3c16.1-6.8,31.5-15.5,45.6-25.7
		c1.3-0.9,2.6-1.9,3.5-3.2c2-2.8,1.6-7.1-0.9-9.5s-6.7-2.7-9.5-0.7c0.5-5,3.5-9.6,7.9-12c2.8-1.5,5.9-2.2,9-2.8
		c40-7.6,78.1-7.7,118.7-4.1c2.6,0.2,4.5,0.6,6.4,2.5c1.3,1.3,1.9,1.1,2.4,2.8c2.3,8.5,3.4,19.2-3.8,24.2
		c6.6,7.8,17.6,14.9,27.6,20.9c7,4.2,15.6,7.5,23.3,4.7c4.8-17.1,5.1-35.4,0.9-52.6c-1-4-2.2-8-4.8-11.2c-3.7-4.7-9.7-7-15.4-8.7
		c-31.1-9.6-64.2-10.9-96.8-9.5c-19.4,0.8-38.7,2.6-57.9,5.1c-17.9,2.3-35.9,5.3-53,11.2"/>
	<path fill="#EFEFEF" d="M425.9,141.4c-0.9-1.9-2.8-3.1-4.8-3.8s-4.1-0.8-6.2-0.9c-2-0.1-3.9-0.2-5.9-0.3c-1.4-0.1-2.8-0.2-4.1,0.2
		c-1.6,0.4-2.9,1.5-4.2,2.6c-3,2.5-5.9,5.3-7.8,8.8c-1.5,2.7-2.2,5.8-2.9,8.8c-0.5,2.2-1,4.4-0.8,6.6c0.2,2.1,0.9,4.1,1.7,6
		c2,4.6,4.6,9,8.8,11.7c3.1,2,6.8,2.9,10.5,3.2c9.3,0.9,19.6-1.5,25.7-8.7c0.8-0.9,1.5-1.9,1.9-3c0.6-1.4,0.7-3,0.7-4.5
		c0-4.2-0.7-8.3-1.4-12.4c-0.3-2-0.7-4-1.5-5.8c-1.6-3.5-4.7-6-7.7-8.4"/>
	<path fill="#E6EAEC" d="M702.1,81.1c-10,2.1-12.2,15.2-12.2,25.5c0,28,0,56.1,0,84.1c0,13.8-1.7,28.6,6.5,39.7
		c2.6,3.5,7.9,6.5,12,8c3.7,1.4,7.7,1.4,11.6,1.4c38,0.2,76.1,0.5,114.1,0.7c12.3,0.1,24.6,0.2,36.8-1.1c9.5-1,19-2.8,28.3-4.9
		c2.2-0.5,1.5-1.1,3.4-2.3c5.7-3.8,5.8-12,5.2-18.8c-3-37.4,1.3-74.6-1.7-112c-0.3-3.7-0.6-7.4-2.5-10.6c-4-6.8-17.5-8.1-25.4-8.4
		c-15.9-0.5-31.8-0.4-47.7-0.2c-41.9,0.4-83.8,0.9-125.8,1.3"/>
	<path fill="#B7C0C3" d="M718.1,100c1.1,22.5,1.4,45,0.9,67.5c-0.2,8.8-0.6,17.7-0.6,26.5c-0.1,8,0.1,16.1,0.6,24.1
		c0,0.6,0.1,1.3,0.5,1.8c0.4,0.5,1.1,0.6,1.8,0.6c7.2,0.7,14.3,1.4,21.5,2.1c11.3,1.1,22.8,2.2,34.1,1.3c7-0.5,13.9-1.8,20.9-2.4
		c13.8-1.1,27.6,0.5,41.5,0.7c15,0.3,30-1,44.7-3.8c0.9-0.2,1.9-0.4,2.4-1.1c0.4-0.6,0.4-1.4,0.4-2.2c-0.3-16.8-0.7-33.6-1-50.3
		c-0.4-20.2-0.8-40.5-3.6-60.5c-0.1-0.8-0.3-1.7-0.9-2.3c-0.6-0.6-1.5-0.6-2.4-0.7c-10.7-0.6-21.3-1.2-32-1.7
		c-7.7-0.4-15.5-0.8-23.2-0.3c-7.1,0.5-19.1-1.5-26.2-0.8c-27.3,2.7-49.9-0.2-77.3,2.5"/>
	<path fill="#E6EAEC" d="M673,155.4c0,3.2,0,6.5,0,9.7c0,0.7,0,1.5,0.6,1.9c0.4,0.3,0.9,0.3,1.4,0.3c4.8-0.2,9.6-0.4,14.4-0.5
		c0.3,0,0.7,0,1-0.2c0.3-0.3,0.5-0.7,0.5-1.1c0.7-3.6,1.3-7.2,1.6-10.8c-1.3-0.9-3.1-0.7-4.6-0.5c-4.6,0.5-9.2,1.1-13.8,1.6"/>
	<path fill="#E8F6FC" d="M784.1,127c1.8,21.3-3,43,1,64.1c0.1,0.7,0.3,1.5,0.8,2c0.7,0.7,1.7,0.7,2.6,0.8
		c14.1,0.6,28.2,1.2,42.3,1.8c5.2,0.2,10.4,0.4,15.6,0.3c6.9-0.2,17.8-1.1,24.7-2.2c0.8-0.1,1.7-0.3,2.2-1c0.4-0.6,0.4-1.4,0.4-2.1
		c-0.7-15.2-1.3-30.4-2-45.6c-0.2-4.6-0.4-9.4-2.7-13.4c-0.5-0.8-3.8-2.8-4.8-2.9c-24.6-2.3-53.5,2.1-78.1-0.3"/>
	<path fill="#438193" d="M849.2,195.3H804v-16.4c0-8,6.4-14.4,14.4-14.4h16.4c8,0,14.4,6.4,14.4,14.4V195.3z"/>
	<circle fill="#438193" cx="826.6" cy="150.4" r="12.6"/>
	<path fill="#E8F6FC" d="M733.3,139.6c0,11.6,0,23.1,0.1,34.7c13.6,1.4,27.6,2.4,40.5-1.8c0.3-0.1,0.6-0.2,0.9-0.5
		c0.3-0.3,0.3-0.7,0.3-1.1c0.6-9.1,1.2-18.2,1.9-27.3c0-0.3,0-0.7-0.2-0.9c-0.2-0.1-0.4-0.1-0.6-0.2c-9.4-0.7-18.9-1.4-28.3-0.7
		c-4.4,0.3-8.8,0.9-13.2,0.5"/>
	<path fill="#438193" d="M762.2,174.5H743v-7c0-3.4,2.7-6.1,6.1-6.1h7c3.4,0,6.1,2.7,6.1,6.1V174.5z"/>
	<circle fill="#438193" cx="752.6" cy="153.8" r="6.4"/>
</g>
<g id="Layer_18">
	<g>
		<path fill="#438193" d="M118.3,230.7H5.3v-139h113V230.7z M8.3,227.7h107v-133H8.3V227.7z"/>
	</g>
	<g>
		<path fill="#438193" d="M123.6,94.7H0v-9h123.6V94.7z M3,91.7h117.6v-3H3V91.7z"/>
	</g>
	<g>
		<path fill="#438193" d="M123.6,236.7H0v-9h123.6V236.7z M3,233.7h117.6v-3H3V233.7z"/>
	</g>
	<g>
		<rect x="6.8" y="136.5" fill="#438193" width="110" height="3"/>
	</g>
	<g>
		<rect x="6.8" y="147.8" fill="#438193" width="110" height="3"/>
	</g>
	<g>
		<rect x="6.8" y="159.7" fill="#438193" width="110" height="3"/>
	</g>
	<g>
		<rect x="6.8" y="171.1" fill="#438193" width="110" height="3"/>
	</g>
	<g>
		<rect x="6.8" y="182.4" fill="#438193" width="110" height="3"/>
	</g>
	<g>
		<path fill="#438193" d="M177.3,131.9h-3V56.5c0-16.7-5.5-30.6-16-40.2C149,7.7,136.4,3,122.9,3c-13.7,0-26.5,4.8-36.1,13.5
			c-10.7,9.7-16.4,23.6-16.4,40v30.7h-3V56.5c0-17.3,6-31.9,17.4-42.3C94.9,5.1,108.4,0,122.9,0c14.3,0,27.6,5,37.4,14.1
			c11.1,10.2,17,24.9,17,42.4V131.9z"/>
	</g>
	<g>
		<path fill="#438193" d="M185.6,185.4c-16,0-29-13-29-29s13-29,29-29c16,0,29,13,29,29S201.6,185.4,185.6,185.4z M185.6,130.3
			c-14.3,0-26,11.7-26,26s11.7,26,26,26c14.3,0,26-11.7,26-26S199.9,130.3,185.6,130.3z"/>
	</g>
	<g>
		
			<rect x="158.1" y="155.3" transform="matrix(0.8041 0.5945 -0.5945 0.8041 129.5368 -79.5173)" fill="#438193" width="54.7" height="3"/>
	</g>
	<g>
		
			<rect x="154.8" y="159.6" transform="matrix(0.8021 0.5972 -0.5972 0.8021 132.2081 -76.7187)" fill="#438193" width="54" height="3"/>
	</g>
	<g>
		
			<rect x="154.1" y="164.3" transform="matrix(0.8042 0.5943 -0.5943 0.8042 133.5405 -73.8307)" fill="#438193" width="49.5" height="3"/>
	</g>
	<g>
		
			<rect x="154.8" y="169" transform="matrix(0.8035 0.5953 -0.5953 0.8035 136.0381 -71.098)" fill="#438193" width="41.8" height="3"/>
	</g>
	<g>
		
			<rect x="155.7" y="172.7" transform="matrix(0.8041 0.5945 -0.5945 0.8041 137.2506 -68.0605)" fill="#438193" width="32.3" height="3"/>
	</g>
	<g>
		
			<rect x="174.1" y="125.5" transform="matrix(0.7071 0.7071 -0.7071 0.7071 147.5591 -84.392)" fill="#438193" width="3" height="20.9"/>
	</g>
	<g>
		
			<rect x="180.2" y="126.7" transform="matrix(0.7113 0.7029 -0.7029 0.7113 149.71 -87.7824)" fill="#438193" width="3" height="23.3"/>
	</g>
	<g>
		
			<rect x="186.5" y="128" transform="matrix(0.7053 0.7089 -0.7089 0.7053 155.3415 -91.7324)" fill="#438193" width="3" height="25.9"/>
	</g>
	<g>
		
			<rect x="189.3" y="151" transform="matrix(0.1792 0.9838 -0.9838 0.1792 319.6411 -78.0686)" fill="#438193" width="34.6" height="3"/>
	</g>
	<g>
		
			<rect x="181.7" y="149.7" transform="matrix(0.167 0.986 -0.986 0.167 315.9489 -71.4833)" fill="#438193" width="37.2" height="3"/>
	</g>
	<g>
		<rect x="180" y="149.6" transform="matrix(0.167 0.986 -0.986 0.167 310.6081 -65.4621)" fill="#438193" width="28" height="3"/>
	</g>
	<g>
		
			<rect x="179.2" y="149.6" transform="matrix(0.167 0.9859 -0.9859 0.167 305.5965 -59.4953)" fill="#438193" width="17.6" height="3"/>
	</g>
	<g>
		
			<rect x="178.4" y="149.6" transform="matrix(0.167 0.9859 -0.9859 0.167 300.4839 -53.4066)" fill="#438193" width="7" height="3"/>
	</g>
	<g>
		<path fill="#438193" d="M489.9,209.2H334.6l20.6-60.5l1-39.5h108.9l1.2,39.3L489.9,209.2z M338.8,206.2h146.7l-22.2-57.2
			l-1.1-36.9H359.2l-0.9,37L338.8,206.2z"/>
	</g>
	<g>
		<path fill="#438193" d="M496.9,229.2H326v-23h170.9V229.2z M329,226.2h164.9v-17H329V226.2z"/>
	</g>
	<g>
		<path fill="#438193" d="M357.2,239.2h-26.9v-13h26.9V239.2z M333.3,236.2h20.9v-7h-20.9V236.2z"/>
	</g>
	<g>
		<path fill="#438193" d="M490.2,239.2h-26.9v-13h26.9V239.2z M466.3,236.2h20.9v-7h-20.9V236.2z"/>
	</g>
	<g>
		<path fill="#438193" d="M411.5,186.1c-14.6,0-26.4-11.8-26.4-26.4s11.8-26.4,26.4-26.4s26.4,11.8,26.4,26.4S426,186.1,411.5,186.1
			z M411.5,136.3c-12.9,0-23.4,10.5-23.4,23.4s10.5,23.4,23.4,23.4c12.9,0,23.4-10.5,23.4-23.4S424.4,136.3,411.5,136.3z"/>
	</g>
	<g>
		<path fill="#438193" d="M411.5,167.7c-4.5,0-8.1-3.6-8.1-8.1s3.6-8.1,8.1-8.1s8.1,3.6,8.1,8.1S415.9,167.7,411.5,167.7z
			 M411.5,154.6c-2.8,0-5.1,2.3-5.1,5.1s2.3,5.1,5.1,5.1s5.1-2.3,5.1-5.1S414.3,154.6,411.5,154.6z"/>
	</g>
	<g>
		<path fill="#438193" d="M411.5,198.6c-21.5,0-38.9-17.5-38.9-38.9s17.5-38.9,38.9-38.9s38.9,17.5,38.9,38.9
			S432.9,198.6,411.5,198.6z M411.5,123.7c-19.8,0-35.9,16.1-35.9,35.9s16.1,35.9,35.9,35.9c19.8,0,35.9-16.1,35.9-35.9
			S431.3,123.7,411.5,123.7z"/>
	</g>
	<g>
		<path fill="#438193" d="M411.5,180.3c-2.9,0-5.3-2.4-5.3-5.3s2.4-5.3,5.3-5.3s5.3,2.4,5.3,5.3S414.4,180.3,411.5,180.3z
			 M411.5,172.8c-1.3,0-2.3,1-2.3,2.3s1,2.3,2.3,2.3c1.3,0,2.3-1,2.3-2.3S412.7,172.8,411.5,172.8z"/>
	</g>
	<g>
		<path fill="#438193" d="M395.3,164.5c-2.9,0-5.3-2.4-5.3-5.3s2.4-5.3,5.3-5.3s5.3,2.4,5.3,5.3S398.2,164.5,395.3,164.5z
			 M395.3,156.9c-1.3,0-2.3,1-2.3,2.3s1,2.3,2.3,2.3s2.3-1,2.3-2.3S396.6,156.9,395.3,156.9z"/>
	</g>
	<g>
		<path fill="#438193" d="M427.9,164.5c-2.9,0-5.3-2.4-5.3-5.3s2.4-5.3,5.3-5.3s5.3,2.4,5.3,5.3S430.8,164.5,427.9,164.5z
			 M427.9,156.9c-1.3,0-2.3,1-2.3,2.3s1,2.3,2.3,2.3s2.3-1,2.3-2.3S429.2,156.9,427.9,156.9z"/>
	</g>
	<g>
		<path fill="#438193" d="M411.5,149.3c-2.9,0-5.3-2.4-5.3-5.3s2.4-5.3,5.3-5.3s5.3,2.4,5.3,5.3S414.4,149.3,411.5,149.3z
			 M411.5,141.7c-1.3,0-2.3,1-2.3,2.3s1,2.3,2.3,2.3c1.3,0,2.3-1,2.3-2.3S412.7,141.7,411.5,141.7z"/>
	</g>
	<g>
		<path fill="#438193" d="M400.2,175.6c-2.9,0-5.3-2.4-5.3-5.3s2.4-5.3,5.3-5.3s5.3,2.4,5.3,5.3S403.1,175.6,400.2,175.6z
			 M400.2,168c-1.3,0-2.3,1-2.3,2.3s1,2.3,2.3,2.3s2.3-1,2.3-2.3S401.5,168,400.2,168z"/>
	</g>
	<g>
		<path fill="#438193" d="M400.2,153.3c-2.9,0-5.3-2.4-5.3-5.3s2.4-5.3,5.3-5.3s5.3,2.4,5.3,5.3S403.1,153.3,400.2,153.3z
			 M400.2,145.7c-1.3,0-2.3,1-2.3,2.3s1,2.3,2.3,2.3s2.3-1,2.3-2.3S401.5,145.7,400.2,145.7z"/>
	</g>
	<g>
		<path fill="#438193" d="M423.1,154c-2.9,0-5.3-2.4-5.3-5.3s2.4-5.3,5.3-5.3s5.3,2.4,5.3,5.3S426,154,423.1,154z M423.1,146.5
			c-1.3,0-2.3,1-2.3,2.3s1,2.3,2.3,2.3s2.3-1,2.3-2.3S424.4,146.5,423.1,146.5z"/>
	</g>
	<g>
		<polygon fill="#FFFFFF" points="421,171.8 427.9,183.8 434.7,178.5 424.9,168.8 		"/>
		<path fill="#438193" d="M427.4,186.1l-8.4-14.6l6-4.6l12,11.8L427.4,186.1z M422.9,172.2l5.4,9.4l4.2-3.2l-7.7-7.6L422.9,172.2z"
			/>
	</g>
	<g>
		<path fill="#438193" d="M535.9,147.7l-56.5-28.1l0.2-1.1c0-0.1,2.2-11-4.8-12.6c-1.3-0.3-10-1.2-22.8-2.2l0.2-3
			c11.2,0.8,21.4,1.8,23.3,2.3c7.2,1.7,8,10,7.2,15l51,25.4c4-20.3-5.7-45.4-7.3-49.3c-33.1-15.1-72.1-23-112.7-23
			c-0.6,0-1.2,0-1.8,0c-40.3,0.2-80.4,8.2-115.8,23c-1.6,4-11.3,29-7.3,49.3l51.1-25.4c-0.3-2.4-0.6-8.1,2-11.7
			c1.3-1.8,3.1-2.9,5.4-3.3c1.4-0.2,13.5-1.4,21.2-2.1l0.3,3c-9,0.8-19.8,1.9-21,2.1c-1.5,0.2-2.6,0.9-3.4,2
			c-2.1,3-1.7,8.7-1.3,10.6l0.2,1.1l-56.5,28.1l-0.4-1.8c-5.6-23.2,6.8-52.4,7.3-53.6l0.2-0.6l0.6-0.2C330.4,76.4,371,68.2,412,68
			c42-0.2,82.2,7.9,116.3,23.5l0.5,0.2l0.2,0.5c0.5,1.2,12.9,30.4,7.3,53.6L535.9,147.7z"/>
	</g>
	<g>
		<path fill="#438193" d="M442.1,102.9c-9.1-0.6-22.2-1.3-33.4-1.2c-8.7,0-18.7,0.4-29.7,1.2l-0.2-3c11.1-0.8,21.2-1.2,29.9-1.2
			c11.3,0,24.5,0.7,33.6,1.2L442.1,102.9z"/>
	</g>
	<g>
		<path fill="#438193" d="M292.6,160.1l-7.9-13.7l59.3-31.5l7.9,13.7L292.6,160.1z M288.9,147.6l4.9,8.5l54-28.7l-4.9-8.5
			L288.9,147.6z"/>
	</g>
	<g>
		<path fill="#438193" d="M531,159.5l-59.2-29l7.4-14l59.2,29L531,159.5z M475.9,129.2l53.8,26.3l4.6-8.7l-53.8-26.3L475.9,129.2z"
			/>
	</g>
	<g>
		<path fill="#438193" d="M380.4,112.2h-13v-18h13V112.2z M370.4,109.2h7v-12h-7V109.2z"/>
	</g>
	<g>
		<path fill="#438193" d="M453.7,112.2h-13v-18h13V112.2z M443.7,109.2h7v-12h-7V109.2z"/>
	</g>
	<g>
		<path fill="#438193" d="M268.5,236.7h-48.6c-13,0-20.4-1.4-25.4-4.8c-5.7-3.8-8.2-10.2-8.2-20.8v-26.5h3v26.5
			c0,19.4,9,22.6,30.6,22.6h48.6c11.5,0,15.3-2.4,15.3-16.8c0-2,0-4-0.1-5.8c-0.2-7.7-0.3-13.7,3.2-17.3c2.1-2.1,5.3-3.1,9.8-3.1
			c13.6,0,45,0.5,45.3,0.5l0,3c-0.3,0-31.7-0.5-45.3-0.5c-3.6,0-6.1,0.7-7.6,2.2c-2.6,2.7-2.5,8.2-2.3,15.2c0,1.9,0.1,3.8,0.1,5.9
			C286.8,233.7,280.9,236.7,268.5,236.7z"/>
	</g>
	<g>
		<path fill="#438193" d="M889.6,240H699c-7.5,0-13.7-6.1-13.7-13.7V93c0-7.5,6.1-13.7,13.7-13.7h190.6c7.5,0,13.7,6.1,13.7,13.7
			v133.3C903.3,233.9,897.2,240,889.6,240z M699,82.3c-5.9,0-10.7,4.8-10.7,10.7v133.3c0,5.9,4.8,10.7,10.7,10.7h190.6
			c5.9,0,10.7-4.8,10.7-10.7V93c0-5.9-4.8-10.7-10.7-10.7H699z"/>
	</g>
	<g>
		<path fill="#438193" d="M884.3,223.4h-169V96.6h169V223.4z M718.3,220.4h163V99.6h-163V220.4z"/>
	</g>
	<g>
		<path fill="#438193" d="M701.7,168.1c-4.5,0-8.2-3.7-8.2-8.2s3.7-8.2,8.2-8.2s8.2,3.7,8.2,8.2S706.2,168.1,701.7,168.1z
			 M701.7,154.7c-2.9,0-5.2,2.3-5.2,5.2s2.3,5.2,5.2,5.2s5.2-2.3,5.2-5.2S704.5,154.7,701.7,154.7z"/>
	</g>
	<g>
		<path fill="#438193" d="M688.3,167.6h-19.2v-15.3h19.2V167.6z M672.1,164.6h13.2v-9.3h-13.2V164.6z"/>
	</g>
	<g>
		<path fill="#438193" d="M775.8,176.4h-46.4v-37.6h46.4V176.4z M732.4,173.4h40.4v-31.6h-40.4V173.4z"/>
	</g>
	<g>
		<path fill="#438193" d="M870.8,196.9h-88.4v-71.5h88.4V196.9z M785.4,193.9h82.4v-65.5h-82.4V193.9z"/>
	</g>
	<g>
		<path fill="#438193" d="M602.6,238.9c-8.2,0-15.8-2.9-21.5-8.2c-6.4-5.9-9.8-14.4-9.8-24.4v-77c0-4.5-1.5-9.9-8.9-9.9h-26.2v-3
			h26.2c7.4,0,11.9,4.8,11.9,12.9v77c0,20.3,14.6,29.5,28.3,29.5c13.5,0,28-9.2,28-29.5V169c0-4.3,0.8-7.1,2.6-8.8
			c2.3-2.3,5.6-2.2,9.2-2.2l1,0c6.3,0,27.1-0.2,27.3-0.2l0,3c-0.2,0-21,0.2-27.3,0.2l-1,0c-3.2,0-5.7,0-7.1,1.4
			c-1.1,1.1-1.7,3.3-1.7,6.7v37.3C633.6,228.7,617.5,238.9,602.6,238.9z"/>
	</g>
	<g>
		<path fill="#438193" d="M563.8,161.9c-5.8,0-10.5-4.7-10.5-10.5s4.7-10.5,10.5-10.5s10.5,4.7,10.5,10.5S569.6,161.9,563.8,161.9z
			 M563.8,143.9c-4.1,0-7.5,3.4-7.5,7.5s3.4,7.5,7.5,7.5s7.5-3.4,7.5-7.5S567.9,143.9,563.8,143.9z"/>
	</g>
	<g>
		<path fill="#438193" d="M563.8,172.5c-5.8,0-10.5-4.7-10.5-10.5s4.7-10.5,10.5-10.5s10.5,4.7,10.5,10.5S569.6,172.5,563.8,172.5z
			 M563.8,154.5c-4.1,0-7.5,3.4-7.5,7.5s3.4,7.5,7.5,7.5s7.5-3.4,7.5-7.5S567.9,154.5,563.8,154.5z"/>
	</g>
	<g>
		<path fill="#438193" d="M563.8,184c-5.8,0-10.5-4.7-10.5-10.5S558,163,563.8,163s10.5,4.7,10.5,10.5S569.6,184,563.8,184z
			 M563.8,166c-4.1,0-7.5,3.4-7.5,7.5s3.4,7.5,7.5,7.5s7.5-3.4,7.5-7.5S567.9,166,563.8,166z"/>
	</g>
	<g>
		<path fill="#438193" d="M563.8,195.6c-5.8,0-10.5-4.7-10.5-10.5s4.7-10.5,10.5-10.5s10.5,4.7,10.5,10.5S569.6,195.6,563.8,195.6z
			 M563.8,177.6c-4.1,0-7.5,3.4-7.5,7.5s3.4,7.5,7.5,7.5s7.5-3.4,7.5-7.5S567.9,177.6,563.8,177.6z"/>
	</g>
	<g>
		<path fill="#438193" d="M563.8,206.1c-5.8,0-10.5-4.7-10.5-10.5s4.7-10.5,10.5-10.5s10.5,4.7,10.5,10.5S569.6,206.1,563.8,206.1z
			 M563.8,188.1c-4.1,0-7.5,3.4-7.5,7.5s3.4,7.5,7.5,7.5s7.5-3.4,7.5-7.5S567.9,188.1,563.8,188.1z"/>
	</g>
	<g>
		<path fill="#438193" d="M563.8,217.7c-5.8,0-10.5-4.7-10.5-10.5s4.7-10.5,10.5-10.5s10.5,4.7,10.5,10.5S569.6,217.7,563.8,217.7z
			 M563.8,199.7c-4.1,0-7.5,3.4-7.5,7.5s3.4,7.5,7.5,7.5s7.5-3.4,7.5-7.5S567.9,199.7,563.8,199.7z"/>
	</g>
</g>
</svg>
